<svg width="44" height="44" viewBox="0 0 44 44" fill="none" xmlns="http://www.w3.org/2000/svg">
<path d="M40.3333 40.3335H3.66663C2.91496 40.3335 2.29163 39.7102 2.29163 38.9585C2.29163 38.2068 2.91496 37.5835 3.66663 37.5835H40.3333C41.085 37.5835 41.7083 38.2068 41.7083 38.9585C41.7083 39.7102 41.085 40.3335 40.3333 40.3335Z" fill="white"/>
<path d="M17.875 7.33317V40.3332H26.125V7.33317C26.125 5.3165 25.3 3.6665 22.825 3.6665H21.175C18.7 3.6665 17.875 5.3165 17.875 7.33317Z" fill="white"/>
<path d="M5.5 18.3332V40.3332H12.8333V18.3332C12.8333 16.3165 12.1 14.6665 9.9 14.6665H8.43333C6.23333 14.6665 5.5 16.3165 5.5 18.3332Z" fill="white"/>
<path d="M31.1666 27.5002V40.3335H38.5V27.5002C38.5 25.4835 37.7666 23.8335 35.5666 23.8335H34.1C31.9 23.8335 31.1666 25.4835 31.1666 27.5002Z" fill="white"/>
</svg>
