<svg width="32" height="32" viewBox="0 0 32 32" fill="none" xmlns="http://www.w3.org/2000/svg">
<rect width="32" height="32" rx="16" fill="#E6EBEC"/>
<path d="M26 20.19C26 23.83 23.83 26 20.19 26H19C18.45 26 18 25.55 18 25V19.23C18 18.96 18.22 18.73 18.49 18.73L20.25 18.7C20.39 18.69 20.51 18.59 20.54 18.45L20.89 16.54C20.92 16.36 20.78 16.19 20.59 16.19L18.46 16.22C18.18 16.22 17.96 16 17.95 15.73L17.91 13.28C17.91 13.12 18.04 12.98 18.21 12.98L20.61 12.94C20.78 12.94 20.91 12.81 20.91 12.64L20.87 10.24C20.87 10.07 20.74 9.94 20.57 9.94L17.87 9.98001C16.21 10.01 14.89 11.37 14.92 13.03L14.97 15.78C14.98 16.06 14.76 16.28 14.48 16.29L13.28 16.31C13.11 16.31 12.98 16.44 12.98 16.61L13.01 18.51C13.01 18.68 13.14 18.81 13.31 18.81L14.51 18.79C14.79 18.79 15.01 19.01 15.02 19.28L15.11 24.98C15.12 25.54 14.67 26 14.11 26H11.81C8.17 26 6 23.83 6 20.18V11.81C6 8.17 8.17 6 11.81 6H20.19C23.83 6 26 8.17 26 11.81V20.19Z" fill="#14192D"/>
</svg>
