<svg width="44" height="44" viewBox="0 0 44 44" fill="none" xmlns="http://www.w3.org/2000/svg">
<path d="M38.2434 15.3449L25.5384 5.18822C23.5767 3.61155 20.405 3.61155 18.4617 5.16989L5.75669 15.3449C4.32669 16.4816 3.41002 18.8832 3.72168 20.6799L6.16002 35.2732C6.60002 37.8766 9.09335 39.9849 11.7334 39.9849H32.2667C34.8884 39.9849 37.4 37.8582 37.84 35.2732L40.2784 20.6799C40.5717 18.8832 39.655 16.4816 38.2434 15.3449ZM22 28.4166C19.47 28.4166 17.4167 26.3632 17.4167 23.8332C17.4167 21.3032 19.47 19.2499 22 19.2499C24.53 19.2499 26.5834 21.3032 26.5834 23.8332C26.5834 26.3632 24.53 28.4166 22 28.4166Z" fill="white"/>
</svg>
