<svg width="32" height="32" viewBox="0 0 32 32" fill="none" xmlns="http://www.w3.org/2000/svg">
<rect width="32" height="32" rx="16" fill="#E6EBEC"/>
<path d="M20.19 6H11.81C8.17 6 6 8.17 6 11.81V20.18C6 23.83 8.17 26 11.81 26H20.18C23.82 26 25.99 23.83 25.99 20.19V11.81C26 8.17 23.83 6 20.19 6ZM16 19.88C13.86 19.88 12.12 18.14 12.12 16C12.12 13.86 13.86 12.12 16 12.12C18.14 12.12 19.88 13.86 19.88 16C19.88 18.14 18.14 19.88 16 19.88ZM21.92 10.88C21.87 11 21.8 11.11 21.71 11.21C21.61 11.3 21.5 11.37 21.38 11.42C21.26 11.47 21.13 11.5 21 11.5C20.73 11.5 20.48 11.4 20.29 11.21C20.2 11.11 20.13 11 20.08 10.88C20.03 10.76 20 10.63 20 10.5C20 10.37 20.03 10.24 20.08 10.12C20.13 9.99 20.2 9.89 20.29 9.79C20.52 9.56 20.87 9.45 21.19 9.52C21.26 9.53 21.32 9.55 21.38 9.58C21.44 9.6 21.5 9.63 21.56 9.67C21.61 9.7 21.66 9.75 21.71 9.79C21.8 9.89 21.87 9.99 21.92 10.12C21.97 10.24 22 10.37 22 10.5C22 10.63 21.97 10.76 21.92 10.88Z" fill="#14192D"/>
</svg>
