<svg width="21" height="20" viewBox="0 0 21 20" fill="none" xmlns="http://www.w3.org/2000/svg">
<path fill-rule="evenodd" clip-rule="evenodd" d="M1.97812 0C1.16203 0 0.5 0.641875 0.5 1.43266V18.5678C0.5 19.3587 1.16211 20 1.97812 20H19.0219C19.8383 20 20.5 19.3586 20.5 18.5676V1.43266C20.5 0.641875 19.8383 0 19.0219 0H1.97812ZM6.57765 7.73335V16.7374H3.58483V7.73335H6.57765ZM6.77491 4.94874C6.77491 5.8128 6.1253 6.50421 5.08186 6.50421L5.06225 6.50413C4.0578 6.50413 3.40843 5.81273 3.40843 4.94866C3.40843 4.06499 4.07741 3.39288 5.10171 3.39288C6.1253 3.39288 6.75538 4.06499 6.77491 4.94874ZM11.2268 16.7374H8.23421C8.23421 16.7374 8.27343 8.57835 8.23436 7.73366H11.227V9.00815C11.6248 8.39475 12.3368 7.52226 13.9243 7.52226C15.8933 7.52226 17.3695 8.80921 17.3695 11.5748V16.7374H14.377V11.921C14.377 10.7105 13.9437 9.88484 12.861 9.88484C12.0341 9.88484 11.5416 10.4416 11.3254 10.9795C11.2463 11.1715 11.2268 11.4409 11.2268 11.7097V16.7374Z" fill="#068698"/>
</svg>
