<svg width="32" height="32" viewBox="0 0 32 32" fill="none" xmlns="http://www.w3.org/2000/svg">
<rect width="32" height="32" rx="16" fill="#E6EBEC"/>
<path fill-rule="evenodd" clip-rule="evenodd" d="M6.97812 6C6.16203 6 5.5 6.64187 5.5 7.43266V24.5678C5.5 25.3587 6.16211 26 6.97812 26H24.0219C24.8383 26 25.5 25.3586 25.5 24.5676V7.43266C25.5 6.64187 24.8383 6 24.0219 6H6.97812ZM11.5776 13.7334V22.7374H8.58483V13.7334H11.5776ZM11.7749 10.9487C11.7749 11.8128 11.1253 12.5042 10.0819 12.5042L10.0623 12.5041C9.0578 12.5041 8.40843 11.8127 8.40843 10.9487C8.40843 10.065 9.07741 9.39288 10.1017 9.39288C11.1253 9.39288 11.7554 10.065 11.7749 10.9487ZM16.2268 22.7374H13.2342C13.2342 22.7374 13.2734 14.5784 13.2344 13.7337H16.227V15.0082C16.6248 14.3948 17.3368 13.5223 18.9243 13.5223C20.8933 13.5223 22.3695 14.8092 22.3695 17.5748V22.7374H19.377V17.921C19.377 16.7105 18.9437 15.8848 17.861 15.8848C17.0341 15.8848 16.5416 16.4416 16.3254 16.9795C16.2463 17.1715 16.2268 17.4409 16.2268 17.7097V22.7374Z" fill="#14192D"/>
</svg>
