<svg width="56" height="56" viewBox="0 0 56 56" fill="none" xmlns="http://www.w3.org/2000/svg">
<path d="M39.6667 43.0034H30.3334L19.9501 49.91C18.4101 50.9366 16.3334 49.8401 16.3334 47.9734V43.0034C9.33341 43.0034 4.66675 38.3367 4.66675 31.3367V17.3366C4.66675 10.3366 9.33341 5.66992 16.3334 5.66992H39.6667C46.6667 5.66992 51.3334 10.3366 51.3334 17.3366V31.3367C51.3334 38.3367 46.6667 43.0034 39.6667 43.0034Z" stroke="#292D32" stroke-width="1.5" stroke-miterlimit="10" stroke-linecap="round" stroke-linejoin="round"/>
<path d="M28 26.5068V26.0169C28 24.4303 28.98 23.5902 29.96 22.9136C30.9167 22.2602 31.8732 21.4202 31.8732 19.8802C31.8732 17.7336 30.1466 16.0068 28 16.0068C25.8533 16.0068 24.1267 17.7336 24.1267 19.8802" stroke="#292D32" stroke-width="1.5" stroke-linecap="round" stroke-linejoin="round"/>
<path d="M27.9894 32.0832H28.0104" stroke="#292D32" stroke-width="1.5" stroke-linecap="round" stroke-linejoin="round"/>
</svg>
