<svg width="32" height="32" viewBox="0 0 32 32" fill="none" xmlns="http://www.w3.org/2000/svg">
<path d="M22.1235 27.1217H9.21851C5.347 27.1217 2.76599 25.1859 2.76599 20.6691V11.6356C2.76599 7.11886 5.347 5.18311 9.21851 5.18311H22.1235C25.995 5.18311 28.576 7.11886 28.576 11.6356V20.6691C28.576 25.1859 25.995 27.1217 22.1235 27.1217Z" stroke="white" stroke-width="1.05587" stroke-miterlimit="10" stroke-linecap="round" stroke-linejoin="round"/>
<path d="M15.6708 20.0243C17.809 20.0243 19.5423 18.2909 19.5423 16.1528C19.5423 14.0146 17.809 12.2812 15.6708 12.2812C13.5326 12.2812 11.7993 14.0146 11.7993 16.1528C11.7993 18.2909 13.5326 20.0243 15.6708 20.0243Z" fill="white" stroke="white" stroke-width="1.05587" stroke-miterlimit="10" stroke-linecap="round" stroke-linejoin="round"/>
<path d="M11.1541 8.40967H9.21832C7.43743 8.40967 5.99207 9.85503 5.99207 11.6359V13.5717" fill="white"/>
<path d="M11.1541 8.40967H9.21832C7.43743 8.40967 5.99207 9.85503 5.99207 11.6359V13.5717" stroke="white" stroke-width="1.05587" stroke-miterlimit="10" stroke-linecap="round" stroke-linejoin="round"/>
<path d="M20.1879 8.40967H22.1236C23.9045 8.40967 25.3499 9.85503 25.3499 11.6359V13.5717" fill="white"/>
<path d="M20.1879 8.40967H22.1236C23.9045 8.40967 25.3499 9.85503 25.3499 11.6359V13.5717" stroke="white" stroke-width="1.05587" stroke-miterlimit="10" stroke-linecap="round" stroke-linejoin="round"/>
<path d="M11.1541 23.8954H9.21832C7.43743 23.8954 5.99207 22.45 5.99207 20.6692V18.7334" fill="white"/>
<path d="M11.1541 23.8954H9.21832C7.43743 23.8954 5.99207 22.45 5.99207 20.6692V18.7334" stroke="white" stroke-width="1.05587" stroke-miterlimit="10" stroke-linecap="round" stroke-linejoin="round"/>
<path d="M20.1879 23.8954H22.1236C23.9045 23.8954 25.3499 22.45 25.3499 20.6692V18.7334" fill="white"/>
<path d="M20.1879 23.8954H22.1236C23.9045 23.8954 25.3499 22.45 25.3499 20.6692V18.7334" stroke="white" stroke-width="1.05587" stroke-miterlimit="10" stroke-linecap="round" stroke-linejoin="round"/>
</svg>
