<svg width="40" height="41" viewBox="0 0 40 41" fill="none" xmlns="http://www.w3.org/2000/svg">
<path d="M17.4833 3.94414L9.16668 7.07747C7.25002 7.79414 5.68335 10.0608 5.68335 12.0941V24.4775C5.68335 26.4441 6.98335 29.0275 8.56668 30.2108L15.7333 35.5608C18.0833 37.3275 21.95 37.3275 24.3 35.5608L31.4667 30.2108C33.05 29.0275 34.35 26.4441 34.35 24.4775V12.0941C34.35 10.0441 32.7833 7.77747 30.8667 7.06081L22.55 3.94414C21.1333 3.42747 18.8667 3.42747 17.4833 3.94414Z" stroke="white" stroke-width="1.5" stroke-linecap="round" stroke-linejoin="round"/>
<path d="M20 21.0607C21.841 21.0607 23.3334 19.5683 23.3334 17.7274C23.3334 15.8864 21.841 14.394 20 14.394C18.1591 14.394 16.6667 15.8864 16.6667 17.7274C16.6667 19.5683 18.1591 21.0607 20 21.0607Z" stroke="white" stroke-width="1.5" stroke-miterlimit="10" stroke-linecap="round" stroke-linejoin="round"/>
<path d="M20 21.061V26.061" stroke="white" stroke-width="1.5" stroke-miterlimit="10" stroke-linecap="round" stroke-linejoin="round"/>
</svg>
