<svg width="32" height="32" viewBox="0 0 32 32" fill="none" xmlns="http://www.w3.org/2000/svg">
<rect width="32" height="32" rx="16" fill="#E6EBEC"/>
<path d="M25.4159 8.40281C24.7797 8.75097 24.0779 8.96498 23.3944 9.10233C23.7203 9.03525 24.1962 8.31976 24.3881 8.03229C24.6798 7.59149 24.9216 7.08682 25.0583 6.54381C25.0767 6.50229 25.0899 6.44799 25.0531 6.41605C25.0084 6.39369 24.9795 6.40647 24.9453 6.42563C24.1803 6.92392 23.3891 7.28485 22.5479 7.54038C22.477 7.56274 22.427 7.54039 22.3823 7.48609C22.3113 7.39027 22.2456 7.30083 22.172 7.22417C21.8171 6.85684 21.4386 6.57255 21.0101 6.35855C20.4475 6.08066 19.835 5.96247 19.2278 6.01038C18.639 6.0583 18.0607 6.25953 17.5375 6.59172C17.0144 6.92391 16.5465 7.38706 16.1733 7.94604C15.7895 8.52418 15.5029 9.20454 15.3583 9.92641C15.219 10.6227 15.2295 11.3127 15.3163 12.0186C15.3294 12.1368 15.3215 12.1527 15.2321 12.1368C11.9383 11.5427 9.20705 10.1085 6.99103 7.0389C6.89377 6.90475 6.84386 6.90475 6.76499 7.04848C5.79499 8.81485 6.26552 11.6544 7.47737 13.0471C7.63772 13.2324 7.80594 13.4176 7.9847 13.5901C7.91898 13.6061 7.11195 13.5007 6.3943 13.0471C6.29704 12.9736 6.24976 13.0152 6.24188 13.1493C6.23399 13.341 6.2471 13.5166 6.26813 13.7243C6.45477 15.5162 7.47476 17.1707 8.87324 17.816C9.03885 17.9022 9.22287 17.9757 9.40162 18.0108C9.08355 18.097 8.75491 18.1577 7.84274 18.0683C7.7297 18.0427 7.68503 18.1098 7.72972 18.244C8.41582 20.5182 9.89842 21.1922 11.0077 21.5787C11.155 21.6106 11.3048 21.6106 11.4546 21.6521C11.4467 21.6681 11.4363 21.6681 11.4284 21.6841C11.0603 22.3644 9.78541 22.8723 9.19131 23.1246C8.1109 23.5846 6.93324 23.789 5.79237 23.6517C5.61099 23.6197 5.57155 23.6229 5.52161 23.6517C5.47166 23.69 5.51634 23.7411 5.57417 23.7986C5.8055 23.9839 6.04207 24.15 6.28128 24.3097C7.00681 24.776 7.76393 25.1497 8.55255 25.4148C12.635 26.7851 17.2352 25.779 20.3004 22.077C22.7083 19.1703 23.5521 15.1616 23.5521 11.1498C23.5521 10.9933 23.7046 10.907 23.7966 10.824C24.4222 10.2522 24.9269 9.56867 25.3948 8.80526C25.5 8.63278 25.5 8.47946 25.5 8.41878V8.39641C25.5 8.33253 25.5 8.3517 25.4185 8.39641L25.4159 8.40281Z" fill="#14192D"/>
</svg>
