<svg width="21" height="20" viewBox="0 0 21 20" fill="none" xmlns="http://www.w3.org/2000/svg">
<path d="M20.4159 2.40281C19.7797 2.75097 19.0779 2.96498 18.3944 3.10233C18.7203 3.03525 19.1962 2.31976 19.3881 2.03229C19.6798 1.59149 19.9216 1.08682 20.0583 0.543812C20.0767 0.502288 20.0899 0.44799 20.0531 0.416048C20.0084 0.393689 19.9795 0.406465 19.9453 0.42563C19.1803 0.923917 18.3891 1.28485 17.5479 1.54038C17.477 1.56274 17.427 1.54039 17.3823 1.48609C17.3113 1.39027 17.2456 1.30083 17.172 1.22417C16.8171 0.85684 16.4386 0.572554 16.0101 0.358546C15.4475 0.080655 14.835 -0.0375273 14.2278 0.0103849C13.639 0.0582972 13.0607 0.259531 12.5375 0.591722C12.0144 0.923914 11.5465 1.38706 11.1733 1.94604C10.7895 2.52418 10.5029 3.20454 10.3583 3.92641C10.219 4.62274 10.2295 5.31267 10.3163 6.01858C10.3294 6.13676 10.3215 6.15274 10.2321 6.13677C6.93834 5.54266 4.20705 4.10848 1.99103 1.0389C1.89377 0.904747 1.84386 0.904747 1.76499 1.04848C0.794989 2.81485 1.26552 5.65445 2.47737 7.04709C2.63772 7.23235 2.80594 7.41762 2.9847 7.5901C2.91898 7.60607 2.11195 7.50066 1.3943 7.04709C1.29704 6.97363 1.24976 7.01515 1.24188 7.14931C1.23399 7.34096 1.2471 7.51664 1.26813 7.72426C1.45477 9.51618 2.47476 11.1707 3.87324 11.816C4.03885 11.9022 4.22287 11.9757 4.40162 12.0108C4.08355 12.097 3.75491 12.1577 2.84274 12.0683C2.7297 12.0427 2.68503 12.1098 2.72972 12.244C3.41582 14.5182 4.89842 15.1922 6.00775 15.5787C6.15495 15.6106 6.30478 15.6106 6.45462 15.6521C6.44673 15.6681 6.43625 15.6681 6.42837 15.6841C6.06035 16.3644 4.78541 16.8723 4.19131 17.1246C3.1109 17.5846 1.93324 17.789 0.792373 17.6517C0.610991 17.6197 0.571552 17.6229 0.521606 17.6517C0.47166 17.69 0.516336 17.7411 0.574168 17.7986C0.805497 17.9839 1.04207 18.15 1.28128 18.3097C2.00681 18.776 2.76393 19.1497 3.55255 19.4148C7.63497 20.7851 12.2352 19.779 15.3004 16.077C17.7083 13.1703 18.5521 9.16162 18.5521 5.14977C18.5521 4.99326 18.7046 4.90702 18.7966 4.82397C19.4222 4.25222 19.9269 3.56867 20.3948 2.80526C20.5 2.63278 20.5 2.47946 20.5 2.41878V2.39641C20.5 2.33253 20.5 2.3517 20.4185 2.39641L20.4159 2.40281Z" fill="#068698"/>
</svg>
