<svg width="40" height="41" viewBox="0 0 40 41" fill="none" xmlns="http://www.w3.org/2000/svg">
<path d="M36.6667 20.2274V28.5607C36.6667 33.5607 33.3334 36.894 28.3334 36.894H11.6667C6.66671 36.894 3.33337 33.5607 3.33337 28.5607V20.2274C3.33337 15.694 6.06671 12.5274 10.3167 11.994C10.75 11.9274 11.2 11.894 11.6667 11.894H28.3334C28.7667 11.894 29.1834 11.9107 29.5834 11.9774C33.8834 12.4774 36.6667 15.6607 36.6667 20.2274Z" stroke="white" stroke-width="1.5" stroke-linecap="round" stroke-linejoin="round"/>
<path d="M29.5856 11.9777C29.1856 11.911 28.769 11.8944 28.3356 11.8944H11.669C11.2023 11.8944 10.7523 11.9277 10.319 11.9944C10.5523 11.5277 10.8856 11.0944 11.2856 10.6944L16.7023 5.26104C18.9856 2.99437 22.6856 2.99437 24.969 5.26104L27.8856 8.21107C28.9523 9.26107 29.519 10.5944 29.5856 11.9777Z" stroke="white" stroke-width="1.5" stroke-linecap="round" stroke-linejoin="round"/>
<path d="M36.6667 21.061H31.6667C29.8334 21.061 28.3334 22.561 28.3334 24.3944C28.3334 26.2277 29.8334 27.7277 31.6667 27.7277H36.6667" stroke="white" stroke-width="1.5" stroke-linecap="round" stroke-linejoin="round"/>
</svg>
