<svg width="44" height="44" viewBox="0 0 44 44" fill="none" xmlns="http://www.w3.org/2000/svg">
<path d="M9.16671 27.5C5.11504 27.5 1.83337 30.7817 1.83337 34.8333C1.83337 36.2083 2.21837 37.51 2.89671 38.61C4.16171 40.7367 6.49004 42.1667 9.16671 42.1667C11.8434 42.1667 14.1717 40.7367 15.4367 38.61C16.115 37.51 16.5 36.2083 16.5 34.8333C16.5 30.7817 13.2184 27.5 9.16671 27.5ZM12.7784 34.2283L8.87337 37.84C8.61671 38.0783 8.26837 38.2067 7.93837 38.2067C7.59004 38.2067 7.24171 38.0783 6.96671 37.8033L5.15171 35.9883C4.62004 35.4567 4.62004 34.5767 5.15171 34.045C5.68337 33.5133 6.56337 33.5133 7.09504 34.045L7.97504 34.925L10.9084 32.2117C11.4584 31.6983 12.3384 31.735 12.8517 32.285C13.365 32.835 13.3284 33.715 12.7784 34.2283Z" fill="white"/>
<path d="M39.4166 22.9165H34.8333C32.8166 22.9165 31.1666 24.5665 31.1666 26.5832C31.1666 28.5998 32.8166 30.2498 34.8333 30.2498H39.4166C39.93 30.2498 40.3333 29.8465 40.3333 29.3332V23.8332C40.3333 23.3198 39.93 22.9165 39.4166 22.9165Z" fill="white"/>
<path d="M30.305 9.89996C30.855 10.4316 30.3966 11.2566 29.6266 11.2566L14.4466 11.2383C13.5666 11.2383 13.1266 10.175 13.75 9.55163L16.9583 6.32496C19.6716 3.62996 24.0533 3.62996 26.7666 6.32496L30.2316 9.82663C30.25 9.84496 30.2866 9.88163 30.305 9.89996Z" fill="white"/>
<path d="M40.095 34.2102C38.9766 37.9868 35.75 40.3335 31.35 40.3335H19.4333C18.7183 40.3335 18.26 39.5452 18.5533 38.8852C19.1033 37.6018 19.4516 36.1535 19.4516 34.8335C19.4516 29.2785 14.9233 24.7502 9.36829 24.7502C7.97495 24.7502 6.61829 25.0435 5.37162 25.5935C4.69329 25.8868 3.86829 25.4285 3.86829 24.6952V22.0002C3.86829 17.0135 6.87495 13.5302 11.55 12.9435C12.0083 12.8702 12.5033 12.8335 13.0166 12.8335H31.35C31.8266 12.8335 32.285 12.8518 32.725 12.9252C36.4283 13.3468 39.105 15.6018 40.095 18.9568C40.2783 19.5618 39.8383 20.1668 39.215 20.1668H35.0166C31.0383 20.1668 27.885 23.7968 28.7466 27.9218C29.3516 30.9285 32.1383 33.0002 35.2 33.0002H39.215C39.8566 33.0002 40.2783 33.6235 40.095 34.2102Z" fill="white"/>
</svg>
